<svg width="22" height="13" viewBox="0 0 22 13" fill="none" xmlns="http://www.w3.org/2000/svg">
<path d="M11.65 4.35699C11.1675 2.98677 10.2042 1.83821 8.93885 1.12462C7.67351 0.411035 6.1922 0.18091 4.77002 0.476987C2.48002 0.936987 0.620016 2.76699 0.140016 5.05699C-0.0535015 5.93409 -0.0478302 6.84342 0.156612 7.71804C0.361055 8.59266 0.759063 9.41029 1.32133 10.1107C1.8836 10.8112 2.59581 11.3766 3.40552 11.7653C4.21523 12.1541 5.10182 12.3562 6.00002 12.357C7.23996 12.357 8.44936 11.9723 9.46136 11.2558C10.4734 10.5394 11.2381 9.5265 11.65 8.35699H16V10.357C16 11.457 16.9 12.357 18 12.357C19.1 12.357 20 11.457 20 10.357V8.35699C21.1 8.35699 22 7.45699 22 6.35699C22 5.25699 21.1 4.35699 20 4.35699H11.65ZM6.00002 8.35699C4.90002 8.35699 4.00002 7.45699 4.00002 6.35699C4.00002 5.25699 4.90002 4.35699 6.00002 4.35699C7.10002 4.35699 8.00002 5.25699 8.00002 6.35699C8.00002 7.45699 7.10002 8.35699 6.00002 8.35699Z" fill="#F7F7F7"/>
</svg>
